{"title":"Willow-720p MP4 AAC x264 BRRip 1988-CC","uid":8282830,"size":3185707546,"categoryP":"video","categoryS":"hd___movies","magnet":"?xt=urn:btih:42a21d829f4ac17bed5730af9ff0316f7aed9d91&amp;dn=Willow-720p+MP4+AAC+x264+BRRip+1988-CC&amp;tr=udp%3A%2F%2Ftracker.openbittorrent.com%3A80&amp;tr=udp%3A%2F%2Fopen.demonii.com%3A1337&amp;tr=udp%3A%2F%2Ftracker.coppersurfer.tk%3A6969&amp;tr=udp%3A%2F%2Fexodus.desync.com%3A6969","seeders":1,"leechers":0,"uploader":"Caveman44","files":-1,"time":1363879947,"description":" &lt;a href=&quot;http://alu5.rhzll.qjtv.e.s48.incloak.com/title/tt0096446/&quot; rel=&quot;nofollow&quot; target=&quot;_NEW&quot;&gt;http://alu5.rhzll.qjtv.e.s48.incloak.com/title/tt0096446/&lt;/a&gt;\nSource: Willow.1988.720p.BluRay.x264-HD4U Thanks!\nSubs ( subrip ) : Arabic, Brazilian, Danish, Dutch, English, Finnish, Polish, Portuguese, Servian.\nSubs ( vobsub ) : Danish, Dutch, English, Finnish, French, German, Italian, Japanese, Norwegian, Spanish, Swedish.\nSample and screens included.\nGeneral\nComplete name : Willow-720p MP4 AAC x264 BRRip 1988-CC.mp4\nFormat : MPEG-4\nFormat profile : Base Media\nCodec ID : isom\nFile size : 2.88 GiB\nDuration : 2h 5mn\nOverall bit rate mode : Variable\nOverall bit rate : 3 275 Kbps\nEncoded date : UTC 2013-03-03 06:38:03\nVideo\nID : 1\nFormat : AVC\nFormat/Info : Advanced Video Codec\nFormat profile : &lt;a class=&quot;__cf_email__&quot; href=&quot;/cdn-cgi/l/email-protection&quot; data-cfemail=&quot;a3ebcac4cbe3ef978d92&quot;&gt;[email&amp;#160;protected]&lt;/a&gt;&lt;script cf-hash='f9e31' type=&quot;text/javascript&quot;&gt;\n/* &lt;![CDATA[ */!function(){try{var t=&quot;currentScript&quot;in document?document.currentScript:function(){for(var t=document.getElementsByTagName(&quot;script&quot;),e=t.length;e--;)if(t[e].getAttribute(&quot;cf-hash&quot;))return t[e]}();if(t&amp;&amp;t.previousSibling){var e,r,n,i,c=t.previousSibling,a=c.getAttribute(&quot;data-cfemail&quot;);if(a){for(e=&quot;&quot;,r=parseInt(a.substr(0,2),16),n=2;a.length-n;n+=2)i=parseInt(a.substr(n,2),16)^r,e+=String.fromCharCode(i);e=document.createTextNode(e),c.parentNode.replaceChild(e,c)}}}catch(u){}}();/* ]]&gt; */&lt;/script&gt;\nFormat settings, CABAC : Yes\nFormat settings, ReFrames : 5 frames\nCodec ID : avc1\nCodec ID/Info : Advanced Video Coding\nDuration : 2h 5mn\nBit rate : 2 995 Kbps\nMaximum bit rate : 27.6 Mbps\nWidth : 1 280 pixels\nHeight : 536 pixels\nDisplay aspect ratio : 2.40:1\nFrame rate mode : Variable\nFrame rate : 23.976 fps\nMinimum frame rate : 15.873 fps\nMaximum frame rate : 25.000 fps\nColor space : YUV\nChroma subsampling : 4:2:0\nBit depth : 8 bits\nScan type : Progressive\nBits/(Pixel*Frame) : 0.182\nStream size : 2.60 GiB (90%)\nWriting library : x264 core 112\nAudio\nID : 2\nFormat : AAC\nFormat/Info : Advanced Audio Codec\nFormat profile : LC\nCodec ID : 40\nDuration : 2h 5mn\nBit rate mode : Variable\nBit rate : 320 Kbps\nMaximum bit rate : 558 Kbps\nChannel(s) : 6 channels\nChannel positions : Front: L C R, Side: L R, LFE\nSampling rate : 48.0 KHz\nCompression mode : Lossy\nDelay relative to video : 83ms\nStream size : 288 MiB (10%)\nLanguage : English\nEnjoy...\nRequested by Clair\nComing soon: Army of Shadows, Tetro, The Insider and more.","torrent":{"xt":"urn:btih:42a21d829f4ac17bed5730af9ff0316f7aed9d91","amp;dn":"Willow-720p+MP4+AAC+x264+BRRip+1988-CC","amp;tr":["udp%3A%2F%2Ftracker.openbittorrent.com%3A80","udp%3A%2F%2Fopen.demonii.com%3A1337","udp%3A%2F%2Ftracker.coppersurfer.tk%3A6969","udp%3A%2F%2Fexodus.desync.com%3A6969"],"infoHash":"42a21d829f4ac17bed5730af9ff0316f7aed9d91","infoHashBuffer":{"type":"Buffer","data":[66,162,29,130,159,74,193,123,237,87,48,175,159,240,49,111,122,237,157,145]},"announce":[],"urlList":[]}}